<svg id="visual" viewBox="0 0 960 540" width="960" height="540" xmlns="http://www.w3.org/2000/svg" xmlns:xlink="http://www.w3.org/1999/xlink" version="1.1"><rect x="0" y="0" width="960" height="540" fill="#fafafa"></rect><defs><linearGradient id="grad1_0" x1="43.8%" y1="100%" x2="100%" y2="0%"><stop offset="14.444444444444446%" stop-color="#f8c06c" stop-opacity="1"></stop><stop offset="85.55555555555554%" stop-color="#f8c06c" stop-opacity="1"></stop></linearGradient></defs><defs><linearGradient id="grad1_1" x1="43.8%" y1="100%" x2="100%" y2="0%"><stop offset="14.444444444444446%" stop-color="#f8c06c" stop-opacity="1"></stop><stop offset="85.55555555555554%" stop-color="#fafafa" stop-opacity="1"></stop></linearGradient></defs><defs><linearGradient id="grad2_0" x1="0%" y1="100%" x2="56.3%" y2="0%"><stop offset="14.444444444444446%" stop-color="#f8c06c" stop-opacity="1"></stop><stop offset="85.55555555555554%" stop-color="#f8c06c" stop-opacity="1"></stop></linearGradient></defs><defs><linearGradient id="grad2_1" x1="0%" y1="100%" x2="56.3%" y2="0%"><stop offset="14.444444444444446%" stop-color="#fafafa" stop-opacity="1"></stop><stop offset="85.55555555555554%" stop-color="#f8c06c" stop-opacity="1"></stop></linearGradient></defs><g transform="translate(960, 540)"><path d="M-378 0C-345.5 -38.1 -312.9 -76.3 -299.3 -124C-285.8 -171.7 -291.2 -229 -267.3 -267.3C-243.4 -305.5 -190.3 -324.7 -140.8 -340C-91.4 -355.3 -45.7 -366.6 0 -378L0 0Z" fill="#fdddb3"></path><path d="M-189 0C-172.7 -19.1 -156.5 -38.1 -149.7 -62C-142.9 -85.9 -145.6 -114.5 -133.6 -133.6C-121.7 -152.8 -95.1 -162.4 -70.4 -170C-45.7 -177.6 -22.9 -183.3 0 -189L0 0Z" fill="#f8c06c"></path></g><g transform="translate(0, 0)"><path d="M378 0C379.7 55.1 381.3 110.2 349.2 144.7C317.1 179.1 251.3 192.8 207.2 207.2C163.1 221.6 140.7 236.6 109.8 265.2C78.9 293.7 39.5 335.9 0 378L0 0Z" fill="#fdddb3"></path><path d="M189 0C189.8 27.6 190.7 55.1 174.6 72.3C158.6 89.5 125.6 96.4 103.6 103.6C81.5 110.8 70.4 118.3 54.9 132.6C39.5 146.9 19.7 167.9 0 189L0 0Z" fill="#f8c06c"></path></g></svg>